<svg width="17" height="18" viewBox="0 0 17 18" fill="none" xmlns="http://www.w3.org/2000/svg">
    <path fill-rule="evenodd" clip-rule="evenodd" d="M11.9974 16.9996H5.04914C2.49689 16.9996 0.538888 16.0778 1.09505 12.3675L1.74264 7.33917C2.08548 5.48783 3.26638 4.7793 4.30252 4.7793H12.7745C13.8259 4.7793 14.9382 5.54116 15.3344 7.33917L15.9819 12.3675C16.4543 15.6588 14.5497 16.9996 11.9974 16.9996Z" stroke="white" stroke-width="1.5" stroke-linecap="round" stroke-linejoin="round"/>
    <path d="M12.1116 4.59605C12.1116 2.61003 10.5016 1.00003 8.51554 1.00003C7.55918 0.995987 6.64061 1.37306 5.96293 2.04788C5.28525 2.7227 4.90429 3.63968 4.9043 4.59605" stroke="white" stroke-width="1.5" stroke-linecap="round" stroke-linejoin="round"/>
    <path d="M10.9838 8.3457H10.9458" stroke="white" stroke-width="1.5" stroke-linecap="round" stroke-linejoin="round"/>
    <path d="M6.13087 8.3457H6.09277" stroke="white" stroke-width="1.5" stroke-linecap="round" stroke-linejoin="round"/>
</svg>
