<svg width="12" height="11" viewBox="0 0 12 11" fill="none" xmlns="http://www.w3.org/2000/svg">
    <path d="M9.21559 6.8427C9.06565 6.988 8.99676 7.19815 9.03092 7.40424L9.54557 10.2525C9.58899 10.4939 9.4871 10.7382 9.28506 10.8777C9.08707 11.0224 8.82367 11.0398 8.60774 10.924L6.04375 9.58673C5.95459 9.53926 5.8556 9.51378 5.75429 9.51089H5.59741C5.54299 9.51899 5.48973 9.53636 5.4411 9.56299L2.87653 10.9066C2.74975 10.9703 2.60618 10.9929 2.4655 10.9703C2.12279 10.9055 1.89412 10.579 1.95027 10.2345L2.4655 7.38629C2.49966 7.17846 2.43077 6.96716 2.28083 6.81954L0.190389 4.79336C0.0155586 4.62374 -0.0452268 4.36902 0.0346627 4.1392C0.112237 3.90995 0.310223 3.74265 0.549313 3.70502L3.42649 3.28763C3.64532 3.26505 3.83752 3.1319 3.93593 2.93507L5.20375 0.335767C5.23385 0.277877 5.27264 0.224617 5.31953 0.179462L5.37163 0.138938C5.39884 0.108835 5.4301 0.0839419 5.46484 0.0636801L5.52794 0.0405237L5.62635 0H5.87007C6.08774 0.0225775 6.27936 0.152832 6.37951 0.347346L7.66411 2.93507C7.75674 3.12437 7.93678 3.25579 8.14461 3.28763L11.0218 3.70502C11.2649 3.73975 11.4681 3.90764 11.5486 4.1392C11.6244 4.37133 11.559 4.62605 11.3807 4.79336L9.21559 6.8427Z" fill="#FFAB07"/>
</svg>
